<?xml version="1.0" encoding="UTF-8"?>
<svg width="394px" height="105px" viewBox="0 0 394 105" version="1.1" xmlns="http://www.w3.org/2000/svg" xmlns:xlink="http://www.w3.org/1999/xlink">
    <!-- Generator: sketchtool 59.1 (101010) - https://sketch.com -->
    <title>0BF600C8-BA3B-424C-8442-EB342BD2778C</title>
    <desc>Created with sketchtool.</desc>
    <g id="Landing" stroke="none" stroke-width="1" fill="none" fill-rule="evenodd">
        <g transform="translate(-100.000000, -308.000000)" fill="#AF8F61" id="Group-19">
            <g transform="translate(100.000000, 308.000000)">
                <path d="M81.7381553,6.98076214 C81.7381553,4.04318932 80.4400243,2.57248544 77.8456796,2.57248544 L76.3001942,2.57248544 L76.3001942,11.4829951 L77.5446359,11.4829951 C80.3403155,11.4829951 81.7381553,9.98161165 81.7381553,6.98076214 M84.7524272,6.90598058 C84.7524272,9.15901456 84.1100728,10.8847427 82.8272816,12.0812476 C81.5464078,13.2796699 79.6960437,13.8798398 77.2742718,13.8798398 L73.3990534,13.8798398 L73.3990534,0.194815534 L77.6961165,0.194815534 C79.9299757,0.194815534 81.6633738,0.785398058 82.8982282,1.96464563 C84.135,3.1438932 84.7524272,4.79100485 84.7524272,6.90598058" id="Fill-1"></path>
                <polygon id="Fill-3" points="127.632937 13.8794563 130.534078 13.8794563 130.534078 0.194432039 127.632937 0.194432039"></polygon>
                <path d="M179.21476,6.19421359 L184.643133,6.19421359 L184.643133,13.2888738 C183.763012,13.5764951 182.934663,13.7778301 182.158085,13.8928786 C181.381507,14.0079272 180.587672,14.0654515 179.77658,14.0654515 C177.711459,14.0654515 176.133376,13.4595291 175.04425,12.245767 C173.955124,11.0320049 173.412478,9.28901942 173.412478,7.01872816 C173.412478,4.80979612 174.043328,3.08790291 175.306944,1.85113107 C176.570561,0.616276699 178.321216,0.000766990291 180.562745,0.000766990291 C181.966337,0.000766990291 183.320075,0.278800971 184.623959,0.840621359 L183.659468,3.16268447 C182.662381,2.6622233 181.623109,2.41295146 180.54357,2.41295146 C179.289541,2.41295146 178.284784,2.83479612 177.529299,3.67848544 C176.775731,4.52025728 176.39607,5.65156796 176.39607,7.07433495 C176.39607,8.55846117 176.700949,9.6936068 177.310706,10.4759369 C177.916629,11.2601845 178.802502,11.6513495 179.964493,11.6513495 C180.568498,11.6513495 181.18209,11.5880728 181.807187,11.4634369 L181.807187,8.61023301 L179.21476,8.61023301 L179.21476,6.19421359 Z" id="Fill-5"></path>
                <polygon id="Fill-6" points="227.941845 13.8794563 230.842985 13.8794563 230.842985 0.194432039 227.941845 0.194432039"></polygon>
                <polygon id="Fill-7" points="279.608803 13.8792646 276.705745 13.8792646 276.705745 2.61025971 272.991595 2.61025971 272.991595 0.194240291 283.322954 0.194240291 283.322954 2.61025971 279.608803 2.61025971"></polygon>
                <path d="M332.163362,8.1885801 C331.246808,5.23758495 330.731007,3.56938107 330.614041,3.18205097 C330.50091,2.79472087 330.416541,2.48792476 330.366687,2.2635801 C330.161517,3.06316748 329.570934,5.03625 328.598774,8.1885801 L332.163362,8.1885801 Z M333.848823,13.8796481 L332.85557,10.6237743 L327.868216,10.6237743 L326.874964,13.8796481 L323.749478,13.8796481 L328.5796,0.13901699 L332.125012,0.13901699 L336.976226,13.8796481 L333.848823,13.8796481 Z" id="Fill-8"></path>
                <polygon id="Fill-9" points="378.740765 13.8792646 378.740765 0.194240291 381.641905 0.194240291 381.641905 11.4824199 387.19108 11.4824199 387.19108 13.8792646"></polygon>
                <path d="M25.8053883,60.5820704 C23.1247573,60.572483 20.2082767,60.2618519 17.5468204,60.8121675 C14.5517233,61.4315121 12.2775971,64.4515364 11.1865534,67.6345461 C9.83281553,71.5826286 9.7407767,75.9583083 8.39279126,79.9063908 C7.85206311,81.4883083 7.06398058,82.9609296 6.04771845,84.1861966 C5.48973301,84.8553956 4.86271845,85.4498131 4.17050971,85.9157597 C3.65662621,86.2609053 2.85703883,86.4910024 2.62502427,86.6252257 C2.38533981,86.6309782 2.14565534,86.6271432 1.90597087,86.6328956 C1.33648058,86.646318 0.540728155,86.8610752 0,86.7421917 C2.4486165,87.2848374 5.06213592,87.0604927 7.53951456,87.0604927 C10.0437379,87.0604927 12.8279126,87.392216 15.3014563,86.7747888 C18.1968447,86.0519005 20.3578398,83.0031141 21.4162864,79.9063908 C22.7259223,76.0752743 22.8486408,71.8491578 24.0873301,67.9911966 C24.8907524,65.4946432 26.8101456,62.1946675 29.2223301,61.1553956 C29.8359223,61.1477257 30.4475971,61.1515607 31.0592718,61.1362209 C31.5884951,61.1227985 32.4820388,60.8716092 32.9652427,61.0269248 C30.6853641,60.294449 28.1370388,60.5897403 25.8053883,60.5820704" id="Fill-10"></path>
                <polygon id="Fill-11" points="39.8512816 1.79571602 31.8822524 23.3979976 55.6206019 86.7130461 72.6113544 86.7130461 41.0976408 1.79571602"></polygon>
                <path d="M103.156167,64.4751214 C103.023862,68.8239563 102.230027,71.9034223 100.77658,73.7173544 C99.321216,75.5332039 97.035585,76.4382524 93.9139345,76.4382524 C91.0856578,76.4382524 88.9112403,75.3376214 87.390682,73.1382767 C85.8701238,70.9370146 85.1108034,67.6351214 85.1108034,63.2345146 C85.1108034,58.8339078 85.8624539,55.4783252 87.3715073,53.1696845 C88.8786432,50.8629612 90.9917015,49.7105583 93.7125995,49.7105583 C97.0470898,49.7105583 99.4554393,50.7498301 100.935731,52.8322087 C102.416022,54.9107524 103.156167,58.3526214 103.156167,63.1539806 L103.156167,64.4751214 Z M114.524881,25.0230583 L106.32959,25.0230583 L103.1926,33.5922573 C103.1926,33.5922573 103.112066,42.4797573 103.236701,46.3492233 L102.835949,46.3492233 C99.8753665,41.9754612 95.5802209,39.7857039 89.9524296,39.7857039 C84.58925,39.7857039 80.3823083,41.833568 77.3277694,45.9273786 C74.2732306,50.0231068 72.7469199,55.7371845 72.7469199,63.0753641 C72.7469199,70.3023301 74.2463859,75.956966 77.2472354,80.0392718 C80.2500024,84.1215777 84.3764102,86.1617718 89.6322112,86.1617718 C95.3136917,86.1617718 99.5417257,83.9605097 102.318231,79.5599029 L102.835949,79.5599029 L105.196362,85.3621845 L114.559396,85.3621845 L114.559396,33.6286893 L114.524881,33.6286893 L114.524881,25.0230583 Z" id="Fill-12"></path>
                <path d="M168.736138,55.4681626 C168.736138,42.8281626 163.154367,36.5062451 151.988905,36.5062451 L145.346769,36.5062451 L145.346769,74.8346675 L150.700362,74.8346675 C162.724852,74.8346675 168.736138,68.3785267 168.736138,55.4681626 M181.702109,55.1460267 C181.702109,64.836949 178.942862,72.2575801 173.426284,77.4098374 C167.911624,82.5640121 159.94643,85.1410995 149.532619,85.1410995 L132.86592,85.1410995 L132.86592,26.2803471 L151.344633,26.2803471 C160.953104,26.2803471 168.414002,28.819085 173.729245,33.8888908 C179.04257,38.964449 181.702109,46.0495218 181.702109,55.1460267" id="Fill-13"></path>
                <path d="M207.613534,48.0210704 C205.011519,48.0210704 202.971325,48.8475024 201.494869,50.4965316 C200.018413,52.1474782 199.174723,54.488716 198.958049,57.5221626 L216.190403,57.5221626 C216.134796,54.488716 215.342879,52.1474782 213.81465,50.4965316 C212.284505,48.8475024 210.217466,48.0210704 207.613534,48.0210704 M209.345015,85.9449053 C202.098874,85.9449053 196.436568,83.9449782 192.35618,79.9451238 C188.275791,75.9471869 186.237515,70.2829636 186.237515,62.9582063 C186.237515,55.4148568 188.122393,49.5838131 191.894068,45.4650752 C195.663825,41.3463374 200.877442,39.285051 207.534917,39.285051 C213.893267,39.285051 218.846107,41.0970655 222.389602,44.7191772 C225.933097,48.3432063 227.704845,53.347818 227.704845,59.7368471 L227.704845,65.6963617 L198.678097,65.6963617 C198.810403,69.18425 199.843922,71.908983 201.776738,73.8667257 C203.709553,75.8263859 206.420864,76.8081335 209.908752,76.8081335 C212.620063,76.8081335 215.181811,76.5243471 217.59783,75.9606092 C220.01385,75.3968714 222.537248,74.4994927 225.166107,73.2646383 L225.166107,82.7657306 C223.020451,83.839517 220.725233,84.6371869 218.282369,85.1606578 C215.841422,85.6841286 212.861665,85.9449053 209.345015,85.9449053" id="Fill-14"></path>
                <path d="M242.630092,54.8653083 C242.630092,57.3062549 243.18616,59.2390704 244.300214,60.6618374 C245.41235,62.0865218 247.111233,62.7979053 249.393029,62.7979053 C251.699752,62.7979053 253.390966,62.0865218 254.464752,60.6618374 C255.538539,59.2390704 256.075432,57.3062549 256.075432,54.8653083 C256.075432,49.4446044 253.849243,46.7332937 249.393029,46.7332937 C244.885044,46.7332937 242.630092,49.4446044 242.630092,54.8653083 L242.630092,54.8653083 Z M238.160456,91.5005995 C238.160456,93.1918131 238.971549,94.5225413 240.59565,95.488949 C242.219752,96.4534393 244.495796,96.9366432 247.419947,96.9366432 C251.822471,96.9366432 255.270092,96.3326383 257.768563,95.1246286 C260.261282,93.9166189 261.511476,92.2675898 261.511476,90.1737063 C261.511476,88.4805752 260.773248,87.31475 259.294874,86.6704782 C257.820335,86.0262063 255.538539,85.7040704 252.45332,85.7040704 L246.091136,85.7040704 C243.836184,85.7040704 241.951306,86.2332937 240.434583,87.2936578 C238.917859,88.3540218 238.160456,89.7556966 238.160456,91.5005995 L238.160456,91.5005995 Z M272.905117,40.1295073 L272.905117,46.3708908 L265.858393,48.1829053 C267.146937,50.1943374 267.791209,52.4492888 267.791209,54.9458422 C267.791209,59.7778811 266.105748,63.5399684 262.73866,66.2397743 C259.369655,68.9357451 254.692932,70.2837306 248.70849,70.2837306 L246.495723,70.1648471 L244.681791,69.9615947 C243.420092,70.9280024 242.79116,72.0037063 242.79116,73.1829539 C242.79116,74.9547015 245.046112,75.8405752 249.554097,75.8405752 L257.202908,75.8405752 C262.142325,75.8405752 265.90633,76.9009393 268.494922,79.0216675 C271.085432,81.1404782 272.381646,84.2544587 272.381646,88.3616917 C272.381646,93.6213277 270.186136,97.701716 265.798951,100.600939 C261.40985,103.498245 255.109024,104.947857 246.896476,104.947857 C240.614825,104.947857 235.817301,103.854896 232.503903,101.667056 C229.188587,99.479216 227.531888,96.4131723 227.531888,92.4670073 C227.531888,89.7556966 228.375578,87.4892403 230.068709,85.6638034 C231.758005,83.8383665 234.241136,82.538318 237.516184,81.7579053 C236.254485,81.2210121 235.155772,80.3428083 234.214291,79.1213762 C233.274728,77.9018617 232.806864,76.6056481 232.806864,75.2365704 C232.806864,73.5204296 233.30349,72.0899927 234.294825,70.9490947 C235.288078,69.8081966 236.724267,68.6883908 238.603393,67.5877597 C236.241063,66.5676626 234.367689,64.9301383 232.987107,62.6751869 C231.604607,60.4202354 230.914316,57.7645316 230.914316,54.7042403 C230.914316,49.7916675 232.511573,45.9950655 235.706087,43.312517 C238.898684,40.6261335 243.462277,39.285818 249.393029,39.285818 C250.654728,39.285818 252.150359,39.4008665 253.88184,39.6271286 C255.61332,39.8553083 256.719704,40.0240461 257.202908,40.1295073 L272.905117,40.1295073 Z" id="Fill-15"></path>
                <path d="M301.476272,39.285818 C303.140641,39.285818 304.523141,39.4047015 305.621854,39.6463034 L304.697631,51.1607451 C303.704379,50.894216 302.496369,50.7580752 301.073602,50.7580752 C297.154282,50.7580752 294.10166,51.76475 291.915738,53.780017 C289.725981,55.7895316 288.634937,58.6101383 288.634937,62.23225 L288.634937,85.1403325 L276.353505,85.1403325 L276.353505,40.1295073 L285.653262,40.1295073 L287.465277,47.6997015 L288.069282,47.6997015 C289.465204,45.1763034 291.352,43.1437791 293.725835,41.6002112 C296.101587,40.0566432 298.684427,39.285818 301.476272,39.285818" id="Fill-16"></path>
                <path d="M328.476439,48.0210704 C325.874425,48.0210704 323.834231,48.8475024 322.357774,50.4965316 C320.881318,52.1474782 320.037629,54.488716 319.820954,57.5221626 L337.053308,57.5221626 C336.997701,54.488716 336.205784,52.1474782 334.677556,50.4965316 C333.14741,48.8475024 331.080371,48.0210704 328.476439,48.0210704 M330.20792,85.9449053 C322.961779,85.9449053 317.299473,83.9449782 313.219085,79.9451238 C309.138697,75.9471869 307.10042,70.2829636 307.10042,62.9582063 C307.10042,55.4148568 308.985299,49.5838131 312.756973,45.4650752 C316.526731,41.3463374 321.740347,39.285051 328.397823,39.285051 C334.756172,39.285051 339.709012,41.0970655 343.252507,44.7191772 C346.796002,48.3432063 348.56775,53.347818 348.56775,59.7368471 L348.56775,65.6963617 L319.541002,65.6963617 C319.673308,69.18425 320.706828,71.908983 322.639643,73.8667257 C324.572459,75.8263859 327.283769,76.8081335 330.771658,76.8081335 C333.482968,76.8081335 336.044716,76.5243471 338.460735,75.9606092 C340.876755,75.3968714 343.400153,74.4994927 346.029012,73.2646383 L346.029012,82.7657306 C343.883357,83.839517 341.588138,84.6371869 339.145274,85.1606578 C336.704328,85.6841286 333.72457,85.9449053 330.20792,85.9449053" id="Fill-17"></path>
                <path d="M373.233774,48.0210704 C370.63176,48.0210704 368.591566,48.8475024 367.115109,50.4965316 C365.638653,52.1474782 364.794964,54.488716 364.578289,57.5221626 L381.810643,57.5221626 C381.755036,54.488716 380.963119,52.1474782 379.434891,50.4965316 C377.904745,48.8475024 375.837706,48.0210704 373.233774,48.0210704 M374.965255,85.9449053 C367.719114,85.9449053 362.056808,83.9449782 357.97642,79.9451238 C353.896032,75.9471869 351.857755,70.2829636 351.857755,62.9582063 C351.857755,55.4148568 353.742633,49.5838131 357.514308,45.4650752 C361.284066,41.3463374 366.497682,39.285051 373.155158,39.285051 C379.513507,39.285051 384.466347,41.0970655 388.009842,44.7191772 C391.553337,48.3432063 393.325085,53.347818 393.325085,59.7368471 L393.325085,65.6963617 L364.298337,65.6963617 C364.430643,69.18425 365.464163,71.908983 367.396978,73.8667257 C369.329794,75.8263859 372.041104,76.8081335 375.528993,76.8081335 C378.240303,76.8081335 380.802051,76.5243471 383.21807,75.9606092 C385.63409,75.3968714 388.157488,74.4994927 390.786347,73.2646383 L390.786347,82.7657306 C388.640692,83.839517 386.345473,84.6371869 383.902609,85.1606578 C381.461663,85.6841286 378.481905,85.9449053 374.965255,85.9449053" id="Fill-18"></path>
            </g>
        </g>
    </g>
</svg>