<?xml version="1.0" standalone="no"?>
<!DOCTYPE svg PUBLIC "-//W3C//DTD SVG 20010904//EN"
 "http://www.w3.org/TR/2001/REC-SVG-20010904/DTD/svg10.dtd">
<svg version="1.0" xmlns="http://www.w3.org/2000/svg"
 width="621.000000pt" height="522.000000pt" viewBox="0 0 621.000000 522.000000"
 preserveAspectRatio="xMidYMid meet">

<g transform="translate(0.000000,522.000000) scale(0.100000,-0.100000)"
fill="#000000" stroke="none">
<path d="M20 5143 c0 -43 -1 -133 -3 -201 -2 -116 -1 -122 18 -122 19 0 20 7
21 200 1 189 0 200 -17 200 -17 0 -19 -8 -19 -77z"/>
<path d="M452 5195 c0 -16 2 -22 5 -12 2 9 2 23 0 30 -3 6 -5 -1 -5 -18z"/>
<path d="M1313 5140 c0 -47 2 -66 4 -42 2 23 2 61 0 85 -2 23 -4 4 -4 -43z"/>
<path d="M5955 5191 c3 -25 -1 -30 -23 -36 -28 -7 -42 -21 -42 -42 0 -16 32
-17 48 -1 9 9 12 7 12 -10 0 -13 -6 -22 -15 -22 -10 0 -15 -10 -15 -34 0 -30
3 -33 25 -31 14 2 27 -1 31 -6 3 -5 -3 -9 -13 -9 -15 0 -16 -2 -3 -10 11 -7
11 -10 2 -10 -8 0 -10 -5 -6 -12 5 -8 2 -9 -9 -5 -10 3 -17 2 -17 -4 0 -6 10
-13 21 -16 17 -5 8 -10 -36 -24 -69 -21 -83 -32 -66 -53 8 -10 24 -12 54 -9
l42 6 -24 -27 c-14 -14 -29 -26 -35 -26 -6 0 -17 -9 -23 -19 -7 -11 -25 -26
-40 -33 -19 -9 -29 -22 -31 -42 -3 -23 0 -28 13 -22 32 12 65 18 65 12 0 -9
-51 -29 -70 -28 -9 0 -22 -13 -29 -29 -7 -16 -17 -27 -22 -23 -5 3 -9 -2 -9
-10 0 -9 -7 -13 -20 -11 -11 2 -20 0 -20 -6 0 -5 4 -9 10 -9 5 0 16 -12 24
-27 8 -16 15 -24 16 -20 0 5 7 1 16 -7 17 -18 69 -22 79 -6 9 15 48 12 73 -6
21 -15 25 -14 57 11 19 14 35 30 35 34 0 4 11 13 25 19 27 13 45 -2 26 -21
-14 -14 -15 -30 -1 -22 6 4 10 -6 10 -24 0 -16 4 -32 9 -35 11 -7 24 96 20
148 -3 25 1 40 11 46 35 22 39 12 43 -92 l3 -103 2 113 c2 101 4 114 25 134
21 22 22 30 25 255 l3 233 -130 0 -130 0 4 -29z m163 -70 c3 -9 -1 -11 -14 -7
-11 3 -25 2 -33 -3 -18 -12 -41 -3 -41 16 0 19 81 14 88 -6z m-120 -8 c-5 -26
-38 -29 -38 -4 0 15 6 21 21 21 14 0 19 -5 17 -17z m32 -54 c0 -10 -4 -19 -9
-19 -14 0 -33 28 -27 39 10 16 36 1 36 -20z m-90 -249 c0 -5 -4 -10 -10 -10
-5 0 -10 5 -10 10 0 6 5 10 10 10 6 0 10 -4 10 -10z"/>
<path d="M1485 5190 c-3 -6 -3 -19 0 -31 5 -15 12 -18 28 -13 26 8 23 4 31 32
7 19 4 22 -23 22 -16 0 -33 -5 -36 -10z"/>
<path d="M1067 5162 c-24 -3 -28 -7 -25 -30 2 -21 8 -26 23 -24 27 5 37 16 33
38 -2 14 -10 18 -31 16z"/>
<path d="M241 5123 c-1 -22 -5 -25 -41 -27 -17 -1 -27 -53 -12 -68 15 -15 52
1 62 26 4 12 5 38 0 57 -5 23 -8 27 -9 12z"/>
<path d="M635 5130 c-24 -4 -30 -10 -30 -30 0 -20 6 -26 27 -28 22 -3 29 2 34
22 9 36 3 42 -31 36z"/>
<path d="M5625 5099 c-11 -17 1 -21 15 -4 8 9 8 15 2 15 -6 0 -14 -5 -17 -11z"/>
<path d="M5870 5092 c0 -5 -20 -9 -45 -7 -25 1 -68 -4 -95 -11 -28 -7 -57 -11
-65 -7 -17 6 -19 -5 -6 -26 15 -24 -4 -49 -34 -44 -14 3 -25 9 -25 14 0 5 -7
5 -17 2 -11 -4 -14 -3 -9 6 14 21 -23 37 -82 36 -52 -2 -57 -4 -63 -30 -5 -15
-15 -36 -25 -46 -15 -17 -15 -19 0 -25 9 -3 23 -3 32 0 10 4 18 -1 21 -14 7
-26 79 -37 119 -18 17 9 46 13 71 10 32 -3 56 3 100 24 32 16 61 33 64 37 4 5
15 3 26 -3 44 -28 86 58 48 96 -8 9 -15 11 -15 6z m-325 -52 c-3 -5 -11 -10
-16 -10 -6 0 -7 5 -4 10 3 6 11 10 16 10 6 0 7 -4 4 -10z"/>
<path d="M2920 5040 c0 -5 -6 -7 -14 -4 -8 3 -24 -4 -36 -16 -11 -11 -25 -18
-31 -14 -5 3 -20 -5 -31 -18 -14 -15 -19 -17 -15 -6 8 22 -14 29 -37 12 -13
-9 -24 -10 -37 -4 -25 14 -39 12 -39 -5 0 -9 -6 -12 -16 -8 -8 3 -13 12 -10
19 9 24 -14 26 -25 2 -17 -38 -46 -52 -72 -35 -19 12 -24 12 -35 0 -7 -7 -18
-11 -23 -7 -5 3 -16 0 -24 -6 -8 -7 -15 -9 -15 -4 0 5 -4 3 -9 -4 -5 -8 -21
-15 -37 -15 -16 -1 -37 -9 -46 -18 -14 -12 -30 -14 -69 -9 -45 6 -52 4 -57
-12 -2 -10 -8 -18 -13 -18 -6 0 -13 -8 -16 -17 -4 -9 -15 -25 -25 -35 -10 -10
-18 -25 -18 -33 0 -19 -31 -55 -47 -55 -7 0 -13 -10 -13 -22 -1 -39 -34 -69
-68 -63 -34 6 -56 -13 -42 -35 6 -10 0 -22 -22 -42 -18 -15 -36 -28 -40 -28
-5 0 -6 -4 -3 -10 3 -5 1 -10 -5 -10 -6 0 -9 -4 -5 -9 3 -5 -3 -12 -12 -14
-15 -4 -14 -6 5 -12 16 -5 21 -13 17 -24 -4 -9 -8 -36 -10 -61 -2 -25 -14 -65
-26 -89 -11 -24 -23 -58 -25 -75 -2 -17 -10 -51 -18 -76 -27 -83 -41 -164 -40
-235 1 -87 11 -156 23 -168 6 -6 7 -22 4 -38 -6 -30 13 -99 28 -99 5 0 9 -16
9 -35 0 -19 5 -46 12 -61 12 -27 12 -27 25 22 7 27 10 34 8 16 -6 -42 22 -72
68 -72 19 0 56 -7 83 -15 60 -18 158 -20 176 -2 7 6 33 19 58 27 50 17 57 32
59 120 1 62 -18 128 -43 145 -8 7 -14 14 -12 16 3 2 -5 5 -17 5 -12 1 -42 4
-67 8 -84 12 -115 12 -200 -1 -47 -7 -87 -12 -89 -13 -6 0 11 275 20 319 10
43 60 129 86 144 8 5 37 30 66 57 29 27 75 59 102 71 28 12 63 28 79 34 23 10
37 10 65 1 54 -17 82 -9 116 34 33 43 50 51 42 19 -5 -19 -4 -20 12 -5 10 9
21 13 24 9 4 -3 7 3 7 15 0 25 25 30 34 6 4 -10 13 -13 26 -9 15 5 20 2 20
-11 0 -13 3 -14 15 -4 11 9 19 10 28 1 10 -8 17 -7 25 1 8 8 12 9 12 1 0 -6 9
-9 20 -6 16 4 19 2 14 -11 -4 -11 -1 -16 10 -16 9 0 16 5 16 11 0 6 8 8 18 5
9 -2 42 -6 72 -8 30 -2 58 -7 62 -13 4 -5 36 -11 70 -11 66 -1 148 -30 148
-51 0 -7 7 -10 15 -7 9 4 15 1 15 -7 0 -8 14 -20 30 -27 17 -8 30 -20 30 -28
0 -8 8 -29 17 -47 20 -37 26 -163 11 -214 -8 -27 -3 -52 27 -145 47 -144 80
-231 109 -288 18 -37 28 -46 53 -48 23 -2 35 -11 49 -39 11 -20 32 -49 49 -64
30 -27 51 -29 41 -3 -8 20 8 17 29 -6 10 -11 22 -20 27 -20 15 0 8 34 -12 60
-11 14 -20 30 -20 35 0 6 -13 19 -29 30 -31 20 -32 38 -3 33 11 -2 18 5 20 20
2 13 10 22 20 22 15 0 15 2 2 10 -12 8 -10 10 11 10 20 0 28 -8 39 -35 15 -38
26 -44 33 -17 2 9 3 2 1 -17 -3 -34 -3 -34 12 -12 12 17 15 39 11 94 -3 40 -8
83 -12 97 -7 24 -6 24 13 -3 l19 -29 7 34 c3 18 2 58 -3 88 -5 30 -7 60 -4 66
4 12 63 20 178 27 43 2 50 5 53 25 3 22 3 22 -100 17 -57 -3 -115 -8 -129 -10
-20 -3 -28 1 -32 15 -3 11 -1 22 4 26 5 3 0 15 -11 26 -11 12 -21 37 -21 57
-1 20 -2 43 -3 52 -1 9 -7 24 -15 33 -9 10 -11 20 -5 24 5 4 10 18 11 32 0 14
3 52 6 84 5 57 -7 106 -25 106 -4 0 -7 5 -5 11 1 6 -13 12 -31 14 -18 1 -36 5
-39 8 -11 12 -13 71 -2 78 8 4 6 16 -5 37 -20 38 -57 66 -67 51 -12 -20 -21
11 -14 49 6 32 5 34 -9 23 -10 -9 -16 -9 -16 -3 0 13 -31 4 -41 -11 -12 -17
-29 4 -29 36 0 33 -19 78 -20 47 0 -12 -2 -12 -9 -1 -6 10 -10 10 -16 1 -6 -9
-10 -9 -16 1 -7 11 -9 10 -9 -3 0 -11 -5 -15 -15 -12 -8 4 -15 14 -15 24 0 9
-11 29 -25 44 -14 15 -25 31 -25 37 0 5 -8 9 -18 9 -10 0 -24 8 -31 19 -8 10
-21 17 -30 14 -24 -6 -106 43 -135 80 -50 64 -57 69 -82 63 -14 -4 -24 -2 -24
4 0 5 -4 10 -10 10 -5 0 -10 -4 -10 -10z m-354 -473 c1 -9 -2 -19 -7 -23 -5
-3 -9 -1 -9 5 0 5 -3 17 -7 27 -4 11 -2 15 7 12 7 -2 14 -12 16 -21z"/>
<path d="M1750 4915 c0 -29 3 -66 6 -83 l6 -30 24 21 c29 25 31 43 4 50 -15 4
-20 14 -20 40 0 29 4 36 23 39 18 3 16 5 -10 9 l-33 6 0 -52z"/>
<path d="M5860 4930 c0 -5 7 -10 16 -10 8 0 12 5 9 10 -3 6 -10 10 -16 10 -5
0 -9 -4 -9 -10z"/>
<path d="M441 4914 c0 -11 3 -14 6 -6 3 7 2 16 -1 19 -3 4 -6 -2 -5 -13z"/>
<path d="M1505 4853 c-22 -1 -77 -5 -122 -9 l-83 -6 0 -69 c0 -39 4 -69 10
-69 6 0 10 11 10 24 0 14 4 27 10 31 5 3 85 11 177 17 93 7 171 17 175 22 4 6
8 23 8 39 l0 27 -72 -2 c-40 -1 -91 -3 -113 -5z"/>
<path d="M1060 4824 c-91 -7 -174 -12 -184 -13 -18 -1 -19 -8 -12 -123 10
-179 18 -258 26 -258 5 0 15 33 24 74 9 40 22 80 29 88 11 13 57 29 162 58 17
4 51 11 77 15 37 5 47 10 51 28 8 37 8 121 0 132 -5 7 -63 6 -173 -1z"/>
<path d="M650 4798 c-74 -5 -155 -11 -178 -14 l-44 -6 4 -201 c3 -175 6 -208
23 -244 21 -44 34 -54 36 -28 1 8 2 18 4 23 1 4 5 21 10 37 9 34 55 125 55
110 1 -6 9 0 20 13 11 13 27 22 37 20 10 -2 27 4 37 14 16 15 67 25 79 16 2
-2 11 3 20 11 14 11 17 11 17 0 1 -11 3 -10 10 2 12 21 25 245 14 250 -5 3
-70 1 -144 -3z"/>
<path d="M320 4772 c-19 -1 -97 -6 -173 -10 l-139 -7 3 -360 c2 -198 4 -416 4
-485 1 -69 -2 -159 -6 -200 -5 -53 -4 -77 4 -82 9 -6 9 -8 0 -8 -8 0 -10 -14
-5 -47 7 -55 8 -158 3 -288 -1 -49 -1 -110 1 -135 2 -25 0 -50 -4 -57 -5 -6
-5 -14 0 -17 5 -3 6 -24 2 -48 -5 -24 -9 -715 -9 -1535 l-2 -1493 86 0 c90 0
125 15 125 52 0 10 10 22 22 27 30 11 56 92 40 124 -10 21 -11 21 -23 -11 -11
-25 -19 -32 -40 -32 -31 0 -38 12 -34 58 2 18 -2 32 -9 32 -6 0 -5 4 3 9 8 5
12 18 9 29 -4 12 3 29 18 45 12 14 20 28 17 31 -4 3 -2 6 3 6 57 3 108 11 124
20 15 8 21 6 29 -7 8 -14 10 -11 16 19 9 50 3 73 -20 75 -199 16 -286 27 -313
39 -40 18 -43 44 -4 44 54 0 55 4 47 171 -4 85 -7 189 -6 232 1 43 -4 87 -10
98 -8 16 -7 25 5 38 18 19 21 41 7 41 -15 0 -22 30 -11 50 5 10 19 22 30 25
20 6 20 7 -1 24 -22 17 -26 70 -21 276 1 77 -4 364 -7 380 -1 6 -1 93 0 195 3
250 3 244 -10 248 -15 5 -14 77 1 102 10 16 10 24 0 40 -13 21 -17 82 -6 93 6
5 14 92 14 137 0 42 -11 187 -15 204 -2 11 0 28 6 38 7 12 6 25 -2 39 -8 15
-8 28 -1 43 19 40 21 55 7 66 -15 12 -14 89 4 289 6 63 9 117 6 120 -2 4 0 13
5 21 5 9 5 19 -2 27 -7 9 -7 17 -1 26 6 7 8 36 4 67 -4 30 -3 91 2 135 4 44 8
114 7 155 0 126 20 269 42 284 11 8 16 20 12 29 -4 12 1 20 18 26 13 5 30 16
37 25 7 9 24 16 37 16 13 0 24 4 24 9 0 10 58 35 76 32 6 -1 14 13 18 30 9 45
8 377 -1 381 -5 2 -24 2 -43 0z"/>
<path d="M6163 4415 c0 -22 2 -30 4 -17 2 12 2 30 0 40 -3 9 -5 -1 -4 -23z"/>
<path d="M3835 4421 c-87 -6 -90 -7 -90 -31 0 -23 3 -24 55 -21 30 1 71 6 91
10 20 5 50 7 68 6 27 -2 31 1 31 21 0 21 -4 24 -32 22 -18 -1 -73 -4 -123 -7z"/>
<path d="M5923 4373 c-23 -9 -14 -20 12 -15 14 2 25 8 25 13 0 10 -17 11 -37
2z"/>
<path d="M5892 4298 c-1 -38 -6 -68 -12 -68 -5 0 -10 -4 -10 -10 0 -5 7 -10
16 -10 11 0 14 -5 9 -17 -12 -32 -14 -53 -4 -53 5 0 14 12 19 26 6 14 14 22
20 19 6 -4 10 10 9 37 -1 35 -2 38 -8 16 -4 -20 -10 -25 -20 -19 -10 7 -11 13
-2 30 7 13 8 21 2 21 -5 0 -12 21 -14 48 -3 39 -4 36 -5 -20z"/>
<path d="M6137 4303 c-4 -3 -7 -34 -7 -67 1 -46 3 -57 11 -43 5 9 19 17 30 17
29 0 46 43 29 75 -13 24 -48 34 -63 18z"/>
<path d="M3850 4181 c0 -18 18 -21 30 -6 10 13 9 15 -9 15 -11 0 -21 -4 -21
-9z"/>
<path d="M5215 4144 c-9 -9 -15 -18 -13 -19 2 -2 27 0 56 2 35 4 52 10 52 19
0 20 -74 18 -95 -2z"/>
<path d="M5352 4106 c-1 -22 -9 -48 -19 -58 -18 -21 -4 -24 28 -7 14 7 17 14
10 22 -5 7 -11 28 -14 47 l-4 35 -1 -39z"/>
<path d="M5250 4060 c0 -24 26 -38 42 -22 8 8 8 15 -2 27 -18 21 -40 19 -40
-5z"/>
<path d="M4031 4013 c1 -45 12 -64 29 -52 11 8 12 12 3 16 -7 2 -13 18 -13 34
0 16 -4 29 -10 29 -5 0 -10 -12 -9 -27z"/>
<path d="M4860 3966 c0 -2 7 -7 16 -10 8 -3 12 -2 9 4 -6 10 -25 14 -25 6z"/>
<path d="M4830 3913 c0 -13 4 -22 9 -19 5 3 12 -1 15 -9 4 -12 0 -14 -19 -9
l-25 6 0 -113 c1 -147 11 -198 44 -224 31 -25 34 -39 6 -30 -32 10 -42 -3 -25
-35 8 -16 15 -42 16 -57 l1 -28 11 28 c17 43 26 32 30 -40 2 -52 4 -44 5 37 2
103 12 150 25 116 4 -9 17 -16 31 -16 14 0 28 -4 31 -10 11 -18 34 -11 38 13
4 19 4 18 6 -6 0 -17 8 -30 19 -34 36 -12 102 -45 108 -54 7 -12 -21 -12 -44
0 -51 26 -73 34 -78 28 -4 -3 -13 0 -21 8 -38 38 -56 1 -29 -60 l13 -30 10 35
10 35 11 -27 c14 -34 32 -45 32 -19 0 34 19 24 26 -14 8 -42 17 -44 30 -7 9
23 12 15 19 -61 4 -48 9 -87 10 -85 2 2 6 23 9 47 2 23 7 45 10 49 6 6 8 -51
10 -448 l1 -245 -29 -46 -29 -46 -29 32 c-15 18 -28 37 -28 42 0 5 -12 20 -26
34 -14 13 -39 49 -54 79 -51 99 -141 169 -165 129 -5 -7 -13 -4 -26 7 -13 11
-27 14 -46 10 -15 -4 -40 -10 -56 -13 -49 -10 -109 -100 -121 -185 -6 -42 -5
-48 15 -59 22 -11 22 -12 4 -25 -16 -12 -17 -14 -2 -20 24 -9 21 -22 -5 -26
-20 -3 -23 -8 -21 -48 3 -60 27 -79 60 -48 13 12 26 19 29 15 13 -13 -8 -78
-39 -119 -18 -24 -43 -60 -56 -80 -25 -41 -41 -46 -84 -23 -36 19 -57 10 -57
-25 0 -15 -7 -44 -15 -64 -9 -20 -13 -41 -10 -46 15 -24 -11 -6 -64 44 -57 55
-92 74 -234 127 -43 16 -84 34 -93 41 -59 49 -108 122 -194 293 -54 108 -65
122 -103 142 -24 13 -44 18 -46 12 -2 -6 7 -37 19 -70 l22 -60 -35 -72 c-35
-72 -58 -102 -241 -305 -100 -112 -116 -132 -349 -441 -124 -163 -249 -351
-346 -519 -23 -40 -46 -70 -52 -67 -5 4 -12 -2 -15 -12 -17 -52 -27 -72 -34
-68 -5 3 -6 -4 -3 -15 3 -11 0 -20 -6 -20 -6 0 -11 -5 -11 -11 0 -6 -13 -39
-29 -73 -42 -89 -85 -183 -153 -336 -32 -74 -68 -153 -79 -176 -10 -23 -19
-46 -19 -51 0 -6 -7 -16 -15 -23 -13 -11 -14 -8 -9 18 5 23 1 33 -15 44 -14
10 -19 21 -15 32 4 10 0 18 -10 22 -15 6 -15 7 0 19 16 11 16 14 1 36 -10 14
-17 43 -17 71 0 27 -4 48 -10 48 -10 0 -6 62 5 80 3 5 -1 7 -9 4 -14 -5 -14
-3 -1 23 16 31 14 95 -2 100 -18 6 -26 -17 -8 -23 13 -6 14 -8 3 -15 -18 -12
-31 -11 -23 1 3 6 3 10 0 10 -10 0 -86 -55 -125 -90 -20 -18 -42 -29 -52 -27
-11 3 -20 -2 -23 -13 -3 -10 -13 -24 -21 -31 -14 -11 -15 -2 -10 87 15 240 91
675 128 728 12 16 21 36 22 45 1 9 9 30 18 47 11 20 13 35 7 45 -11 18 -12 32
0 25 5 -4 7 2 5 12 -3 9 -1 28 5 42 5 14 10 19 10 13 2 -34 38 -4 92 73 l33
49 10 192 c5 106 13 193 18 193 4 0 8 -4 8 -8 0 -5 8 -17 18 -28 21 -23 82
-122 82 -133 0 -4 10 -17 23 -29 13 -12 48 -60 78 -107 49 -79 56 -85 79 -79
14 4 52 8 85 9 36 1 74 9 95 20 42 21 184 124 221 158 14 13 55 46 91 73 88
66 181 145 253 214 73 71 115 117 96 105 -11 -6 -13 -4 -6 11 4 10 8 27 9 36
0 9 4 14 8 12 4 -3 8 4 8 16 0 12 5 30 10 41 6 10 12 37 15 59 2 22 6 44 9 49
3 5 -5 16 -19 25 -15 10 -25 12 -25 6 0 -6 -5 -8 -11 -5 -14 9 -81 -4 -74 -14
2 -5 -7 -17 -22 -26 -25 -17 -27 -17 -41 1 -9 13 -16 15 -19 7 -2 -7 -10 -10
-16 -8 -21 8 -41 -11 -32 -31 19 -45 16 -67 -11 -91 -15 -13 -35 -23 -45 -23
-9 0 -29 -13 -42 -30 -17 -19 -31 -28 -41 -24 -9 3 -16 1 -16 -4 0 -6 -9 -14
-20 -17 -11 -3 -20 -13 -20 -21 0 -8 -5 -12 -10 -9 -6 3 -21 -7 -35 -23 -32
-39 -177 -132 -205 -132 -11 0 -28 -4 -38 -9 -19 -10 -145 -31 -187 -31 -37 0
-165 55 -165 72 0 4 -7 8 -16 8 -8 0 -28 13 -44 29 -16 16 -32 26 -35 23 -3
-3 -5 2 -5 12 0 29 -51 88 -72 83 -12 -3 -18 0 -18 10 0 22 -67 95 -74 80 -3
-7 -2 1 1 17 4 21 3 27 -6 22 -7 -5 -17 6 -26 28 -9 20 -19 36 -24 36 -5 0
-13 15 -17 32 -3 18 -13 37 -20 43 -7 5 -17 33 -23 60 -5 28 -13 60 -16 73 -6
19 -4 22 22 22 16 0 34 -5 41 -12 6 -6 17 -13 24 -15 66 -14 94 -25 119 -49
16 -15 29 -25 29 -21 0 4 9 -1 19 -10 38 -34 47 -40 63 -37 10 1 15 -3 12 -11
-3 -7 0 -24 7 -36 l12 -23 18 23 c15 18 25 22 46 17 17 -5 29 -3 35 6 8 10 11
10 15 1 2 -7 14 -13 26 -13 18 0 19 2 7 10 -12 8 -9 10 13 10 15 0 27 -4 27
-10 0 -5 5 -10 10 -10 6 0 9 6 8 13 -2 7 9 12 31 13 19 0 36 4 38 10 2 5 -43
8 -113 6 -75 -2 -114 0 -110 7 4 5 2 12 -4 16 -5 3 -10 -1 -10 -9 0 -29 -18
-17 -30 20 -13 39 -8 53 14 35 11 -9 15 -8 20 5 5 14 9 14 23 3 11 -10 17 -10
20 -3 2 6 10 19 17 29 13 18 14 17 43 -3 29 -21 30 -21 43 -1 18 24 75 26 88
2 9 -15 11 -15 28 2 17 17 17 18 2 12 -10 -3 -18 -2 -18 3 0 21 61 -4 81 -33
4 -5 10 0 14 12 8 27 45 29 45 1 0 -24 15 -26 24 -4 9 25 38 -3 30 -29 -3 -10
-2 -18 2 -16 5 2 46 23 91 47 91 46 104 49 127 27 12 -12 20 -13 35 -6 29 16
61 61 61 87 0 30 -78 104 -147 140 -21 10 -44 25 -51 32 -7 6 -19 12 -25 12
-7 0 -20 9 -30 20 -9 11 -24 20 -32 20 -9 0 -28 6 -43 14 -15 7 -38 16 -52 19
-22 5 -28 2 -37 -23 -14 -37 -44 -49 -109 -43 -44 5 -60 1 -119 -31 -84 -45
-131 -43 -183 7 -32 31 -34 31 -47 13 -11 -14 -11 -22 -3 -36 9 -14 9 -28 -1
-58 -8 -22 -11 -51 -7 -65 4 -19 1 -26 -14 -30 -11 -3 -18 -1 -14 4 5 8 -30
14 -68 11 -21 -2 -22 2 -6 20 7 7 21 31 32 53 10 22 22 48 27 58 6 10 5 17 0
17 -10 0 -123 -59 -131 -69 -3 -3 -18 -13 -35 -21 -16 -8 -36 -21 -43 -27 -22
-21 -46 -15 -74 17 -14 17 -24 30 -21 30 2 0 -3 7 -11 16 -9 8 -16 22 -16 29
0 8 -4 16 -9 19 -22 14 18 -197 57 -293 47 -119 162 -296 269 -416 24 -26 43
-50 43 -54 0 -3 -44 -20 -98 -37 -53 -18 -155 -60 -227 -94 -203 -97 -370
-172 -495 -224 -154 -64 -214 -95 -260 -134 -83 -70 -236 -324 -247 -412 -7
-48 -39 -117 -46 -98 -6 18 -15 -37 -27 -177 -6 -66 -16 -135 -21 -153 -6 -17
-17 -80 -24 -140 -21 -167 -73 -433 -88 -448 -1 -2 -57 2 -123 8 -67 6 -129 8
-139 5 -16 -7 -17 -21 -12 -205 4 -108 7 -212 7 -229 0 -25 4 -33 18 -33 16 0
17 12 14 143 -4 149 6 224 27 219 7 -1 18 1 25 6 18 13 73 14 97 2 12 -7 24
-8 28 -4 3 5 12 10 18 11 17 4 16 -31 -1 -93 -8 -27 -17 -69 -20 -94 -4 -28
-15 -51 -28 -61 -18 -14 -19 -20 -11 -46 6 -16 9 -42 6 -56 l-5 -27 666 0 666
0 58 47 c67 54 159 131 186 155 26 23 32 15 16 -22 -8 -18 -43 -54 -84 -85
-39 -30 -82 -64 -96 -75 l-25 -20 1098 0 c603 0 1097 3 1097 6 0 3 -5 14 -10
25 -8 15 -7 19 4 19 8 0 19 -6 23 -13 13 -21 62 -37 111 -36 39 0 43 2 24 9
-12 5 -25 17 -28 25 -4 10 -13 13 -26 9 -13 -4 -18 -2 -14 4 7 12 -49 72 -68
72 -7 0 -22 11 -34 25 -15 17 -33 25 -54 26 -18 0 -42 3 -53 5 -11 3 -38 7
-60 9 -65 8 -95 16 -95 26 0 6 -4 8 -9 5 -5 -4 -22 -1 -38 5 -15 6 -29 10 -31
9 -5 -2 -74 51 -100 77 -13 13 -20 28 -17 33 4 6 2 9 -3 8 -5 -2 -56 43 -113
99 -141 138 -147 143 -170 143 -43 0 -144 88 -184 160 -10 19 -29 46 -42 60
-17 19 -23 37 -23 73 0 62 34 100 100 111 l45 8 -54 14 c-68 18 -64 15 -106
78 -40 60 -46 120 -20 183 8 19 15 37 15 38 0 2 -18 6 -40 10 -25 4 -55 20
-82 45 -40 35 -43 41 -43 89 0 43 4 55 30 80 17 16 62 43 100 59 55 24 74 38
91 67 27 46 48 61 132 90 l67 24 -3 96 c-4 90 -2 99 22 135 41 63 63 72 184
77 156 8 238 -17 392 -116 33 -22 95 -53 138 -70 151 -61 159 -67 197 -145 18
-39 43 -94 54 -123 11 -29 54 -120 95 -203 42 -83 94 -201 116 -262 23 -61 70
-166 104 -234 35 -68 75 -161 90 -206 36 -118 66 -238 66 -264 0 -13 5 -26 11
-29 6 -4 10 -19 9 -33 -6 -84 0 -142 15 -142 19 0 20 -16 2 -23 -9 -3 -12 -16
-9 -36 2 -17 7 -29 11 -27 15 10 9 -69 -9 -116 -11 -29 -20 -54 -20 -55 0 -2
223 -3 495 -3 l496 0 -16 31 c-11 21 -14 43 -10 72 5 32 0 59 -20 112 -29 77
-52 107 -97 126 -29 12 -30 14 -23 53 15 84 11 105 -28 141 -36 33 -37 36 -37
105 0 84 -17 128 -60 154 -27 15 -30 22 -30 65 0 46 1 49 31 55 17 3 45 6 61
6 33 0 47 23 30 51 -10 15 -4 25 37 67 26 27 43 49 37 49 -6 1 -27 4 -48 7
-21 4 -39 3 -43 -4 -4 -6 -22 -8 -46 -4 -24 4 -44 2 -54 -6 -8 -6 -19 -9 -26
-5 -11 8 -10 20 10 130 7 35 6 79 -4 145 -21 146 -24 180 -15 175 16 -10 22
16 7 33 -18 21 -35 108 -18 98 6 -4 11 -2 11 3 0 6 -9 11 -19 11 -26 0 -36 17
-21 35 10 12 17 8 42 -28 17 -23 39 -49 49 -57 21 -18 37 -70 21 -70 -8 0 -8
-9 0 -30 8 -23 13 -28 23 -20 13 11 18 45 38 278 10 115 15 145 29 153 9 5 20
24 24 42 3 17 15 43 25 56 14 17 19 40 19 87 0 55 2 64 18 64 11 0 24 10 31
23 6 12 22 36 35 54 23 31 25 72 6 98 -22 29 -60 106 -60 122 0 10 -11 45 -26
78 -20 48 -34 66 -68 88 -24 15 -48 27 -53 27 -6 0 -30 25 -54 55 -24 30 -47
55 -51 55 -5 0 -8 7 -8 15 0 8 8 15 19 15 20 0 31 34 31 95 0 25 -8 40 -31 59
-41 35 -71 41 -105 22 -65 -35 -67 -39 -61 -115 5 -57 2 -76 -15 -110 -11 -22
-26 -41 -34 -41 -8 0 -14 -4 -14 -8 0 -13 -107 -65 -119 -57 -9 5 -11 121 -9
424 3 354 5 421 18 436 8 10 14 20 13 21 -5 8 12 40 30 60 19 20 107 157 103
161 -1 1 -33 3 -71 4 -52 1 -86 9 -133 31 -34 15 -68 28 -76 28 -7 0 -19 6
-25 14 -7 8 -25 18 -41 21 -16 4 -41 16 -55 27 -17 13 -35 18 -52 15 -19 -3
-27 0 -30 13 -3 10 -13 20 -24 23 -15 4 -19 0 -19 -20z m78 -46 c20 3 23 2 13
-5 -11 -8 -10 -11 5 -15 16 -4 16 -5 -3 -6 -13 0 -23 3 -23 9 0 5 -7 7 -15 4
-10 -4 -15 0 -14 12 0 11 3 14 5 8 3 -6 17 -9 32 -7z m-2100 -686 c20 -11 59
-42 85 -70 26 -29 51 -50 55 -47 4 3 9 -8 10 -24 2 -24 -2 -31 -23 -36 -14 -3
-25 -10 -25 -14 0 -16 -65 -30 -164 -36 -56 -3 -126 -12 -157 -19 -50 -11 -58
-11 -79 5 l-22 17 46 38 c25 20 46 43 46 49 0 6 28 25 63 41 34 17 67 39 72
50 38 75 38 74 93 46z m1942 -448 c13 -9 33 -18 44 -19 65 -9 94 -19 119 -43
15 -14 36 -26 45 -26 23 0 27 -38 6 -70 -23 -35 -15 -111 16 -153 l23 -31 -21
-34 -20 -35 78 -7 c85 -8 100 -4 100 25 0 24 37 50 72 50 27 0 27 -1 21 -45
l-6 -45 39 0 c64 0 68 -7 61 -97 -4 -43 -12 -114 -17 -158 -6 -44 -13 -100
-15 -125 -2 -24 -8 -46 -14 -48 -6 -2 -41 1 -78 8 -154 25 -146 25 -138 2 3
-12 4 -26 0 -31 -3 -6 -63 19 -133 54 -70 36 -133 65 -140 65 -8 0 -12 8 -10
18 3 12 13 17 36 16 l32 -2 0 53 c0 42 -5 60 -25 83 -30 36 -30 37 -5 69 11
14 25 44 31 65 6 24 18 42 28 45 22 6 41 43 41 80 l0 26 -23 -21 c-27 -26 -84
-29 -113 -7 -11 9 -14 15 -6 16 6 1 17 3 22 4 6 1 15 3 20 4 20 2 10 21 -11
21 -18 0 -19 3 -9 15 6 8 9 19 6 24 -4 5 -2 12 4 16 17 11 11 25 -11 25 -16 0
-20 -5 -16 -20 3 -11 1 -23 -4 -26 -6 -3 -9 -15 -7 -27 2 -14 -3 -23 -14 -25
-13 -2 -26 15 -51 68 l-34 71 28 15 c15 8 37 14 49 14 24 0 27 28 4 37 -8 3
-27 0 -41 -6 -38 -18 -53 2 -25 32 14 15 22 36 22 60 0 42 5 44 40 20z m-1455
-63 c3 -5 1 -10 -4 -10 -6 0 -11 5 -11 10 0 6 2 10 4 10 3 0 8 -4 11 -10z
m-1108 -802 c-3 -8 -6 -5 -6 6 -1 11 2 17 5 13 3 -3 4 -12 1 -19z m-3 -43 c3
-8 1 -15 -4 -15 -6 0 -10 7 -10 15 0 8 2 15 4 15 2 0 6 -7 10 -15z m-49 -125
c3 -5 1 -10 -4 -10 -6 0 -11 5 -11 10 0 6 2 10 4 10 3 0 8 -4 11 -10z m3535
-666 c0 -20 -13 -17 -27 5 -10 16 -9 18 8 14 10 -3 19 -12 19 -19z m-45 -54
c-3 -5 -25 -9 -48 -9 l-42 2 40 7 c22 4 44 8 48 9 5 0 5 -3 2 -9z m-3395 -90
c0 -5 -4 -10 -10 -10 -5 0 -10 5 -10 10 0 6 5 10 10 10 6 0 10 -4 10 -10z"/>
<path d="M4811 2625 c12 -12 21 -14 42 -6 38 15 33 21 -15 21 -38 0 -41 -2
-27 -15z"/>
<path d="M2948 3835 c-4 -5 -89 -12 -223 -19 -32 -1 -75 -21 -87 -40 -5 -8 -8
-7 -8 2 0 21 -27 13 -33 -10 -3 -12 -1 -44 5 -71 5 -27 8 -64 5 -82 -8 -47 14
-73 58 -71 22 1 35 -3 35 -11 0 -16 62 -33 120 -33 43 0 47 13 5 23 -11 3 12
5 50 6 39 1 120 14 181 29 l111 27 -23 20 c-26 22 -33 58 -10 49 8 -3 16 4 19
18 8 30 8 29 37 56 14 13 19 21 12 17 -8 -4 -20 1 -28 14 -8 12 -22 21 -30 21
-9 0 -35 11 -58 25 -33 19 -51 24 -76 18 -24 -4 -31 -3 -26 5 4 7 2 12 -3 12
-6 0 -11 -6 -11 -12 0 -10 -2 -10 -8 0 -5 7 -11 10 -14 7z m-58 -135 c0 -5 -5
-10 -11 -10 -5 0 -7 5 -4 10 3 6 8 10 11 10 2 0 4 -4 4 -10z m220 -52 c0 -13
-23 -5 -28 10 -2 7 2 10 12 6 9 -3 16 -11 16 -16z m-140 -88 c-19 -13 -30 -13
-30 0 0 6 10 10 23 10 18 0 19 -2 7 -10z m-55 -10 c3 -5 -1 -10 -9 -10 -9 0
-16 5 -16 10 0 6 4 10 9 10 6 0 13 -4 16 -10z"/>
<path d="M5893 3455 c0 -33 2 -45 4 -27 2 18 2 45 0 60 -2 15 -4 0 -4 -33z"/>
<path d="M4910 3491 c0 -5 6 -23 14 -41 l13 -32 11 32 c7 18 9 36 6 41 -7 12
-44 12 -44 0z"/>
<path d="M5436 3388 c-3 -18 -4 -78 -3 -134 l2 -101 33 10 32 10 0 124 0 123
-30 0 c-25 0 -30 -4 -34 -32z"/>
<path d="M5890 3283 l0 -68 26 28 c14 16 28 27 30 25 7 -8 -43 -98 -51 -91 -4
5 -5 -21 -1 -56 3 -35 6 -103 7 -150 0 -47 3 -79 7 -71 4 8 15 16 25 18 15 3
17 -6 17 -68 0 -62 -2 -70 -19 -70 -12 0 -21 8 -24 23 -2 12 -5 -15 -6 -60 -1
-57 3 -83 11 -85 10 -4 10 -10 0 -32 -15 -33 -16 -90 -2 -81 6 3 10 -1 10 -9
0 -9 -5 -16 -10 -16 -7 0 -10 -185 -10 -549 l1 -550 32 11 c44 15 48 21 10 16
l-33 -5 1 51 c1 28 4 42 6 31 3 -11 17 -30 30 -43 27 -25 32 -25 127 15 57 24
61 24 73 7 7 -10 11 -26 8 -35 -5 -16 38 -119 50 -119 3 0 5 448 5 997 l0 996
-143 -6 c-85 -3 -149 -2 -160 4 -15 9 -17 4 -17 -58z m36 -320 c-11 -11 -19 6
-11 24 8 17 8 17 12 0 3 -10 2 -21 -1 -24z"/>
<path d="M2277 3290 c-3 -11 -1 -20 4 -20 5 0 9 9 9 20 0 11 -2 20 -4 20 -2 0
-6 -9 -9 -20z"/>
<path d="M2236 3213 c-6 -14 -5 -15 5 -6 7 7 10 15 7 18 -3 3 -9 -2 -12 -12z"/>
<path d="M3604 3123 c-31 -4 -31 -5 -38 -72 -8 -87 1 -136 20 -120 8 6 14 20
14 30 0 11 5 19 10 19 6 0 10 7 10 15 0 8 4 15 9 15 14 0 20 37 7 50 -8 8 -7
10 5 5 11 -4 18 1 22 15 7 27 -1 51 -17 48 -6 0 -25 -3 -42 -5z"/>
<path d="M1752 3046 c-21 -18 -80 -69 -104 -91 -31 -27 -57 -27 -95 2 -17 13
-34 24 -37 24 -20 -3 -24 1 -19 19 7 28 0 25 -41 -16 -26 -26 -40 -33 -49 -27
-21 17 -56 22 -50 8 3 -9 -10 -18 -39 -26 -84 -24 -98 -57 -46 -109 28 -28 33
-30 43 -16 15 20 35 2 35 -32 0 -60 21 -96 73 -128 l51 -32 29 22 c25 18 28
27 26 66 -3 67 0 80 14 80 7 0 20 15 28 33 10 23 22 33 42 35 33 4 50 -25 24
-40 -19 -10 -23 -53 -7 -63 6 -3 13 1 16 10 4 9 16 15 28 14 40 -3 46 1 60 36
8 19 20 35 25 35 6 0 11 12 11 28 1 30 24 67 43 67 19 0 20 33 3 69 -17 36
-44 49 -64 32z m0 -90 c-66 -54 -129 -78 -78 -31 15 14 31 25 35 25 4 0 18 11
31 25 16 17 26 22 31 14 4 -7 -4 -21 -19 -33z m-372 -25 c0 -13 -28 -22 -35
-11 -3 4 1 11 7 13 20 8 28 8 28 -2z m-32 -60 c3 -8 -1 -12 -9 -9 -7 2 -15 10
-17 17 -3 8 1 12 9 9 7 -2 15 -10 17 -17z m-38 -11 c0 -11 -4 -20 -10 -20 -5
0 -10 9 -10 20 0 11 5 20 10 20 6 0 10 -9 10 -20z"/>
<path d="M2776 2815 c-3 -8 -1 -15 4 -15 13 0 22 18 11 24 -5 3 -11 -1 -15 -9z"/>
<path d="M3572 2745 c1 -67 1 -69 14 -40 17 38 17 54 -1 85 -13 23 -14 20 -13
-45z"/>
<path d="M2284 2746 c-14 -15 -8 -57 12 -103 8 -17 14 -36 14 -42 0 -13 42
-55 75 -76 15 -10 43 -11 115 -5 132 12 152 16 167 36 11 16 10 20 -9 30 -20
11 -23 10 -26 -7 -4 -21 -26 -21 -28 -1 -3 25 -5 27 -14 12 -9 -13 -12 -13
-23 1 -8 11 -18 14 -32 8 -29 -11 -83 -11 -90 1 -3 6 -16 10 -29 10 -34 0
-101 78 -118 137 -2 8 -6 8 -14 -1z"/>
<path d="M4031 2674 c0 -11 3 -14 6 -6 3 7 2 16 -1 19 -3 4 -6 -2 -5 -13z"/>
<path d="M1796 2638 c-8 -32 -7 -40 3 -34 11 7 21 56 11 56 -4 0 -10 -10 -14
-22z"/>
<path d="M3190 2644 c0 -17 22 -14 28 4 2 7 -3 12 -12 12 -9 0 -16 -7 -16 -16z"/>
<path d="M437 2597 c-3 -8 -1 -20 4 -28 6 -10 9 -7 9 14 0 29 -5 35 -13 14z"/>
<path d="M4027 2593 c-10 -9 5 -33 19 -33 18 0 18 26 0 33 -8 3 -16 3 -19 0z"/>
<path d="M1655 2549 c-4 -16 -13 -29 -21 -29 -8 0 -14 -5 -14 -10 0 -7 13 -8
34 -4 43 8 64 -3 41 -20 -15 -11 -15 -13 -1 -25 13 -11 20 -11 41 3 26 17 29
26 19 64 -4 13 -14 22 -25 22 -11 0 -22 6 -25 13 -2 7 -13 13 -24 14 -13 1
-21 -7 -25 -28z m27 -11 c-7 -7 -12 -8 -12 -2 0 6 3 14 7 17 3 4 9 5 12 2 2
-3 -1 -11 -7 -17z"/>
<path d="M441 2545 c-9 -32 -8 -96 1 -87 5 5 8 29 5 53 -2 24 -5 40 -6 34z"/>
<path d="M435 2430 c-3 -5 -1 -10 4 -10 6 0 11 5 11 10 0 6 -2 10 -4 10 -3 0
-8 -4 -11 -10z"/>
<path d="M437 2383 c-11 -10 -8 -43 3 -43 6 0 10 11 10 25 0 26 -2 29 -13 18z"/>
<path d="M436 2302 c-4 -18 -5 -36 -2 -39 11 -12 17 5 14 39 l-3 33 -9 -33z"/>
<path d="M438 2244 c-5 -7 -6 -115 -3 -240 2 -126 5 -427 6 -669 2 -288 5
-385 9 -280 7 215 -3 1203 -12 1189z"/>
<path d="M2421 1844 c-34 -25 -61 -49 -61 -54 0 -4 7 -13 15 -20 22 -18 19
-39 -20 -124 -40 -88 -41 -96 -19 -96 30 0 93 -23 88 -31 -3 -5 -1 -9 5 -9 6
0 22 -12 37 -27 15 -16 24 -23 21 -17 -5 8 3 8 28 0 18 -6 31 -14 29 -18 -2
-3 1 -10 7 -14 8 -4 9 -3 5 4 -9 15 7 15 22 0 9 -9 7 -15 -6 -25 -9 -8 -11
-12 -4 -8 6 3 12 1 12 -4 0 -6 -6 -11 -12 -11 -10 0 -9 -3 1 -9 10 -7 12 -19
6 -47 -4 -22 -8 -51 -9 -65 -1 -24 1 -26 24 -17 50 19 90 58 90 87 0 15 3 31
8 35 4 4 7 11 8 14 1 16 41 91 76 144 45 67 48 104 13 146 -14 17 -25 34 -25
39 0 11 -59 63 -71 63 -6 0 -5 8 1 19 15 29 13 30 -20 18 -26 -10 -32 -9 -44
8 -14 19 -15 19 -21 3 -5 -13 -18 -18 -51 -18 -40 0 -44 2 -44 24 0 14 5 28
12 32 7 4 8 3 4 -4 -8 -14 3 -15 22 -4 9 6 5 12 -13 20 -39 18 -48 16 -114
-34z m59 -204 c0 -13 -11 -13 -30 0 -12 8 -11 10 8 10 12 0 22 -4 22 -10z
m222 -6 c8 -7 -21 -64 -46 -91 -12 -13 -32 -23 -46 -23 -17 0 -21 -3 -12 -8
12 -8 7 -42 -7 -42 -3 1 -46 20 -96 45 -81 39 -87 44 -56 44 27 1 31 3 22 15
-10 12 -5 13 30 5 69 -16 109 9 49 30 -16 5 -30 12 -30 14 0 3 28 5 61 6 34 0
64 3 67 6 7 7 57 6 64 -1z"/>
<path d="M862 1840 c0 -14 2 -19 5 -12 2 6 2 18 0 25 -3 6 -5 1 -5 -13z"/>
<path d="M2800 1801 c0 -9 -11 -12 -40 -9 -22 2 -40 0 -40 -4 0 -3 19 -19 43
-35 33 -22 45 -39 56 -76 8 -26 17 -47 20 -47 3 0 19 18 34 40 l28 40 -50 53
c-28 28 -51 46 -51 38z"/>
<path d="M863 1740 c0 -25 2 -35 4 -22 2 12 2 32 0 45 -2 12 -4 2 -4 -23z"/>
<path d="M861 1644 c0 -11 3 -14 6 -6 3 7 2 16 -1 19 -3 4 -6 -2 -5 -13z"/>
<path d="M862 1520 l1 -75 7 60 c5 33 4 67 -1 75 -5 9 -8 -13 -7 -60z"/>
<path d="M5551 1526 c-14 -17 -7 -36 14 -36 8 0 19 -8 24 -17 9 -16 10 -14 9
7 -1 14 -9 33 -19 43 -14 15 -18 16 -28 3z"/>
<path d="M2269 1472 c-69 -107 -134 -268 -202 -495 -28 -93 -32 -116 -19 -105
9 8 56 47 105 87 48 40 85 76 82 81 -3 5 0 12 6 16 8 5 9 3 4 -6 -5 -8 -3 -11
6 -8 8 3 14 17 13 31 0 15 3 27 6 27 3 0 6 9 6 19 0 15 -4 17 -17 10 -15 -8
-16 -6 -5 16 6 14 14 25 19 25 4 0 7 17 7 38 0 47 18 114 34 127 17 14 29 65
16 65 -7 0 -5 9 4 22 23 32 20 49 -6 46 -13 -2 -29 -7 -37 -12 -9 -6 -8 0 4
17 9 14 12 28 7 31 -5 3 -20 -11 -33 -32z m-50 -179 c0 -25 -1 -26 -9 -8 -8
18 -9 18 -9 2 -1 -10 -9 -37 -20 -60 -10 -23 -21 -49 -24 -57 -4 -10 -6 -8 -6
7 -1 33 49 143 65 143 2 0 4 -12 3 -27z m-74 -143 c3 -5 1 -10 -4 -10 -6 0
-11 5 -11 10 0 6 2 10 4 10 3 0 8 -4 11 -10z m-38 -102 c-3 -8 -6 -5 -6 6 -1
11 2 17 5 13 3 -3 4 -12 1 -19z"/>
<path d="M2490 1446 c0 -2 7 -7 16 -10 8 -3 12 -2 9 4 -6 10 -25 14 -25 6z"/>
<path d="M5600 1426 c0 -4 7 -14 15 -22 8 -9 15 -11 15 -6 0 5 -7 15 -15 22
-8 7 -15 9 -15 6z"/>
<path d="M3260 1386 c0 -13 10 -16 48 -15 42 1 44 2 17 9 -16 4 -38 11 -47 15
-13 5 -18 2 -18 -9z"/>
<path d="M5650 1371 c6 -12 15 -21 20 -21 18 0 11 19 -11 30 -19 11 -20 10 -9
-9z"/>
<path d="M2623 1213 c-15 -5 -17 -23 -4 -23 5 0 11 7 15 15 3 8 4 15 3 14 -1
0 -8 -3 -14 -6z"/>
<path d="M5565 1144 c-17 -12 -18 -16 -5 -24 13 -8 50 3 50 16 0 3 -4 3 -9 -1
-5 -3 -11 1 -13 9 -3 13 -6 13 -23 0z"/>
<path d="M440 663 c1 -61 4 -83 10 -72 11 19 9 159 -2 159 -5 0 -8 -39 -8 -87z"/>
<path d="M2250 669 c0 -5 5 -7 10 -4 6 3 10 8 10 11 0 2 -4 4 -10 4 -5 0 -10
-5 -10 -11z"/>
<path d="M2270 630 c0 -5 7 -10 15 -10 8 0 15 5 15 10 0 6 -7 10 -15 10 -8 0
-15 -4 -15 -10z"/>
<path d="M4895 121 c-3 -5 -1 -12 5 -16 5 -3 10 1 10 9 0 18 -6 21 -15 7z"/>
</g>
</svg>
